<svg width="554" height="253" viewBox="0 0 554 253" fill="none" xmlns="http://www.w3.org/2000/svg">
  <path d="M273.94 102.935C274.324 105.368 274.225 110.636 270.755 112.243C267.285 113.851 254.639 117.211 248.75 118.69C245.499 119.643 239.207 123.949 240.05 133.555C241.105 145.562 248.814 171.877 248.516 175.905C248.218 179.934 247.119 185.429 234.857 187.296C222.596 189.164 207.621 183.452 197.092 187.03C186.563 190.607 185.866 193.274 179.776 200.231C173.685 207.188 154.518 230.046 134.468 242.325C114.419 254.603 83.7795 251.756 75.8167 250.64C67.8539 249.524 51.5294 245.932 39.2148 235.007C26.9002 224.082 18.0176 197.125 14.4837 183.381C11.6566 172.386 8.80006 158.936 7.7252 153.586C4.89403 139.718 -0.0389015 108.419 2.879 94.1639C6.52636 76.3455 15.6572 57.9058 31.7566 47.2775C47.8559 36.6492 75.7152 31.6896 91.2926 35.2545C106.87 38.8195 133.722 53.1218 145.424 50.186C157.126 47.2503 177.717 28.4092 197.089 26.4288C216.46 24.4483 218.979 27.159 227.125 31.4231C235.271 35.6872 251.23 57.3684 256.12 74.9024L278.392 69.3683M273.94 102.935L239.469 112.234M273.94 102.935L433.99 56.9081M155.68 102.85C163.847 100.458 174.649 103.697 176.975 111.637C179.301 119.577 173.062 128.548 163.307 131.406C153.552 134.264 144.455 133.48 140.33 123.604M485.481 19.5308C483.556 19.6844 479.533 20.5837 478.848 22.9521C478.162 25.3206 482.189 25.6682 484.288 25.5459C497.63 23.4434 525.054 19.0711 528.01 18.4019C531.707 17.5654 532.802 16.2593 532.497 14.378C532.253 12.873 530.005 12.3165 528.911 12.2264L512.5 15.0639M483.484 41.2996C483.909 42.7515 485.447 43.5161 486.163 43.717L535.162 29.3617C535.452 28.9484 535.879 27.7723 535.272 26.3736C534.665 24.9749 532.371 24.5963 531.299 24.5818C531.299 24.5818 529.717 24.5795 517.192 28.222M482.052 14.5518L467.995 17.0176C466.536 22.0978 459.053 24.7169 453.528 25.9361M482.052 14.5518C481.427 14.1018 480.398 12.9407 481.274 11.8958C482.15 10.8509 485.722 10.2641 487.399 10.1014C486.919 9.58506 486.232 8.47265 487.321 8.15364C488.682 7.75488 490.469 7.97022 490.802 9.10448L491.892 12.8257M482.052 14.5518L491.892 12.8257M491.892 12.8257L501.497 11.1407M501.497 11.1407C501.018 10.6253 500.291 9.37867 501.221 8.51521C502.382 7.4359 506.184 7.80011 506.438 6.98664C506.693 6.17316 506.36 5.03891 507.268 4.77307C508.175 4.50723 510.35 4.36279 510.549 5.04334L511.806 9.33239M501.497 11.1407L511.806 9.33239M511.806 9.33239L521.411 7.64739M521.411 7.64739C521.019 6.86789 520.348 5.1966 520.808 4.7474C521.267 4.2982 525.02 3.71073 526.839 3.47314C526.466 3.04175 525.88 2.0483 526.515 1.52565C527.309 0.872329 529.991 0.778138 530.456 1.5275C530.829 2.12699 531.454 4.65168 531.72 5.83909M521.411 7.64739L531.72 5.83909M531.72 5.83909L543.434 3.78421L552.013 14.5721L551.276 30.5527L548.112 33.204L540.57 35.4135C540.157 37.2563 539.938 39.4412 540.914 39.7463C542.541 40.255 541.872 42.1752 539.737 43.2935C537.601 44.4118 530.518 43.7773 528.852 42.2948C527.519 41.1088 529.606 40.1034 530.816 39.7489L530.78 38.3647L521.003 41.229C520.368 42.7731 520.018 44.7033 521.405 45.4619C523.752 46.745 522.496 48.3445 520.814 49.3298C519.132 50.3152 511.103 48.9727 509.797 47.8775C508.752 47.0012 510.501 46.3574 511.506 46.1451L511.31 44.6354L501.404 47.5375C501.193 48.6701 501.255 49.9643 502.217 50.5908C504.043 51.78 503.495 52.4331 500.812 54.2045C498.129 55.9759 490.26 54.34 489.928 53.2058C489.662 52.2984 491.499 51.8423 492.451 51.7277L491.786 49.4592L477.721 53.5797C475.46 48.0765 466.7 48.2847 460.426 49.4821M239.469 112.234L189.019 125.844C190.258 123.346 192.215 116.237 190.132 107.782C187.529 97.2143 180.102 93.7247 181.076 93.6857M239.469 112.234C234.3 114.488 225.829 121.168 229.232 132.783C233.486 147.302 238.161 166.623 237.851 168.93C237.542 171.238 236.133 179.04 231.342 181.183C226.551 183.326 221.814 183.974 216.812 183.716C209.543 182.725 189.521 181.365 181.647 183.918C173.774 186.471 158.761 204.171 154.38 209.396C149.999 214.62 139.542 226.01 136.39 228.706M427.178 32.3983L449.842 26.5232M427.178 32.3983L433.99 56.9081M427.178 32.3983L407.661 37.2477M449.842 26.5232C451.204 26.1244 452.033 26.2659 453.528 25.9361M449.842 26.5232L456.821 50.3426M456.821 50.3426L433.99 56.9081M456.821 50.3426C457.849 50.0413 459.081 49.7389 460.426 49.4821M407.661 37.2477L412.754 54.6314M407.661 37.2477L389.293 41.8119M389.293 41.8119L393.797 55.5051M389.293 41.8119L372.531 45.9768M372.531 45.9768L375.986 57.7674M372.531 45.9768L356.229 50.0275M356.229 50.0275L359.402 59.1772M356.229 50.0275L341.305 53.7359M341.305 53.7359L343.594 59.8675M341.305 53.7359L327.069 57.2732M327.069 57.2732L329.263 63.0806M327.069 57.2732L313.981 60.5251M313.981 60.5251L316.2 66.4151M313.981 60.5251L301.353 63.663M301.353 63.663L302.327 65.3065M301.353 63.663L289.643 66.5727M289.643 66.5727L290.558 68.0154M289.643 66.5727L278.392 69.3683M278.392 69.3683L278.922 69.4956M453.528 25.9361L460.426 49.4821M93.5175 116.874C92.9642 114.549 92.4573 112.513 92.0262 110.907C92.0262 110.907 87.5684 83.6394 86.8876 75.7102L88.4755 75.245L97.2553 111.099C97.4068 112.304 97.6111 113.868 97.8487 115.605M93.5175 116.874L49.5182 129.765M93.5175 116.874C93.9398 118.649 94.3892 120.593 94.8524 122.641M93.5175 116.874L97.8487 115.605M97.8487 115.605L142.351 105.277M97.8487 115.605C98.1015 117.454 98.392 119.499 98.6963 121.515M94.8524 122.641L51.1796 135.436M94.8524 122.641L98.6963 121.515M94.8524 122.641C95.3211 124.714 95.8041 126.895 96.2875 129.118M98.6963 121.515L138.142 111.93M98.6963 121.515C99.0512 123.867 99.4251 126.179 99.7801 128.095M96.2875 129.118L56.6702 140.724M96.2875 129.118L99.7801 128.095M96.2875 129.118C96.7539 131.262 97.2207 133.445 97.6757 135.608M99.7801 128.095C99.9999 129.281 100.213 130.315 100.409 131.112C100.587 131.837 100.883 133.03 101.263 134.557M99.7801 128.095L133.745 119.622M101.263 134.557L133.071 125.731M101.263 134.557L97.6757 135.608M101.263 134.557C101.661 136.155 102.15 138.119 102.693 140.296M97.6757 135.608L57.6511 146.595M97.6757 135.608C98.0893 137.575 98.4932 139.525 98.8782 141.414M98.8782 141.414L52.9333 154.874M98.8782 141.414L102.693 140.296M98.8782 141.414C99.2912 143.441 99.6824 145.398 100.041 147.231M102.693 140.296L137.134 131.191M102.693 140.296C103.141 142.093 103.625 144.034 104.125 146.035M100.041 147.231C100.814 151.192 101.433 154.572 101.782 156.82C101.782 156.82 108.621 182.405 111.337 191.955L113.152 191.423L108.884 165.085C107.685 160.289 105.818 152.821 104.125 146.035M100.041 147.231L50.7383 161.675M100.041 147.231L104.125 146.035M104.125 146.035L144.655 134.161" stroke="#232323" stroke-width="2"/>
  </svg>
  